<svg width="25" height="24" viewBox="0 0 25 24" fill="none" xmlns="http://www.w3.org/2000/svg">
<path d="M17.3335 13.4V16.4C17.3335 20.4 15.7335 22 11.7335 22H7.9335C3.9335 22 2.3335 20.4 2.3335 16.4V12.6C2.3335 8.6 3.9335 7 7.9335 7H10.9335" stroke="black" stroke-opacity="0.8" stroke-width="1.5" stroke-linecap="round" stroke-linejoin="round"/>
<path d="M11.9335 2H15.9335M7.3335 5C7.3335 3.34 8.6735 2 10.3335 2H12.9535M22.3335 8V14.19C22.3335 15.74 21.0735 17 19.5235 17M17.3335 13.4H14.1335C11.7335 13.4 10.9335 12.6 10.9335 10.2V7L17.3335 13.4ZM22.3335 8H19.3335C17.0835 8 16.3335 7.25 16.3335 5V2L22.3335 8Z" stroke="black" stroke-opacity="0.8" stroke-width="1.5" stroke-linecap="round" stroke-linejoin="round"/>
</svg>
