<svg width="30" height="24" viewBox="0 0 30 24" fill="none" xmlns="http://www.w3.org/2000/svg">
<path d="M26.1119 6.03412C26.1295 6.28942 26.1295 6.5447 26.1295 6.80235C26.1295 14.653 20.153 23.707 9.22474 23.707V23.7023C5.9965 23.707 2.83532 22.7823 0.117676 21.0388C0.587087 21.0953 1.05885 21.1235 1.53179 21.1247C4.20709 21.127 6.8059 20.2293 8.91062 18.5765C6.36827 18.5282 4.13885 16.8707 3.36002 14.4506C4.25062 14.6224 5.16827 14.5871 6.04239 14.3482C3.27062 13.7882 1.2765 11.3529 1.2765 8.5247C1.2765 8.49882 1.2765 8.47412 1.2765 8.44942C2.10239 8.90942 3.02709 9.1647 3.97297 9.19293C1.36238 7.44824 0.557675 3.9753 2.13415 1.26C5.15062 4.97177 9.6012 7.22823 14.3789 7.46707C13.9 5.40353 14.5542 3.24118 16.0977 1.79059C18.4907 -0.458821 22.2542 -0.343528 24.5035 2.04824C25.8342 1.78589 27.1095 1.29765 28.2765 0.605884C27.833 1.98119 26.9047 3.14942 25.6647 3.89177C26.8424 3.75293 27.993 3.43765 29.0765 2.95647C28.2789 4.15177 27.2742 5.19293 26.1119 6.03412Z" fill="#1D9BF0"/>
</svg>
